<svg width="48" height="48" fill="none" xmlns="http://www.w3.org/2000/svg">
<rect width="48" height="48" rx="24" fill="#0A0A0A"/>
<path d="M35.7075 24.7075L26.7075 33.7075C26.5199 33.8951 26.2654 34.0006 26 34.0006C25.7346 34.0006 25.4801 33.8951 25.2925 33.7075C25.1049 33.5199 24.9994 33.2654 24.9994 33C24.9994 32.7346 25.1049 32.4801 25.2925 32.2925L32.5863 25H13C12.7348 25 12.4804 24.8947 12.2929 24.7071C12.1054 24.5196 12 24.2652 12 24C12 23.7348 12.1054 23.4804 12.2929 23.2929C12.4804 23.1054 12.7348 23 13 23H32.5863L25.2925 15.7075C25.1049 15.5199 24.9994 15.2654 24.9994 15C24.9994 14.7346 25.1049 14.4801 25.2925 14.2925C25.4801 14.1049 25.7346 13.9995 26 13.9995C26.2654 13.9995 26.5199 14.1049 26.7075 14.2925L35.7075 23.2925C35.8005 23.3854 35.8742 23.4957 35.9246 23.6171C35.9749 23.7385 36.0008 23.8686 36.0008 24C36.0008 24.1314 35.9749 24.2615 35.9246 24.3829C35.8742 24.5043 35.8005 24.6146 35.7075 24.7075Z" fill="white"/>
</svg>
