<svg width="456" height="144" viewBox="0 0 456 144" fill="none" xmlns="http://www.w3.org/2000/svg">
<path d="M4.10156 15V5.67188H0.71875V3.72656H9.84375V5.67188H6.46094V15H4.10156ZM12.5625 15.1328C12.0208 15.1328 11.5365 15.0286 11.1094 14.8203C10.6875 14.6068 10.3568 14.3073 10.1172 13.9219C9.8776 13.5312 9.75781 13.0755 9.75781 12.5547V12.5391C9.75781 12.0234 9.88542 11.5807 10.1406 11.2109C10.401 10.8411 10.7786 10.5521 11.2734 10.3438C11.7734 10.1302 12.3802 10.0026 13.0938 9.96094L16.2969 9.76562V11.1562L13.4375 11.3438C12.9479 11.3698 12.5833 11.474 12.3438 11.6562C12.1042 11.8385 11.9844 12.0859 11.9844 12.3984V12.4141C11.9844 12.7422 12.1094 13 12.3594 13.1875C12.6094 13.375 12.9323 13.4688 13.3281 13.4688C13.6823 13.4688 13.9974 13.3984 14.2734 13.2578C14.5495 13.1172 14.7682 12.9271 14.9297 12.6875C15.0911 12.4427 15.1719 12.1693 15.1719 11.8672V9.125C15.1719 8.75 15.0469 8.46354 14.7969 8.26562C14.5521 8.0625 14.1953 7.96094 13.7266 7.96094C13.3151 7.96094 12.9792 8.03125 12.7188 8.17188C12.4635 8.30729 12.2917 8.5026 12.2031 8.75781L12.1875 8.78906H10.0781L10.0859 8.71875C10.1484 8.21354 10.3385 7.77344 10.6562 7.39844C10.9792 7.02344 11.4115 6.73177 11.9531 6.52344C12.5 6.3151 13.1328 6.21094 13.8516 6.21094C14.612 6.21094 15.2578 6.32812 15.7891 6.5625C16.3203 6.79167 16.724 7.125 17 7.5625C17.2812 7.99479 17.4219 8.51562 17.4219 9.125V15H15.1719V13.8594H15.0312C14.8854 14.125 14.6901 14.3542 14.4453 14.5469C14.2057 14.7344 13.9245 14.8802 13.6016 14.9844C13.2839 15.0833 12.9375 15.1328 12.5625 15.1328ZM24.7344 15.1328C24.3281 15.1328 23.9583 15.0755 23.625 14.9609C23.2917 14.8411 23 14.6719 22.75 14.4531C22.5052 14.2344 22.3073 13.9714 22.1562 13.6641H22.0156V15H19.7344V3.10938H22.0156V7.77344H22.1562C22.3021 7.45573 22.5 7.1849 22.75 6.96094C23.0052 6.73698 23.2995 6.5651 23.6328 6.44531C23.9714 6.32031 24.3385 6.25781 24.7344 6.25781C25.4583 6.25781 26.0807 6.4349 26.6016 6.78906C27.1224 7.14323 27.5234 7.65104 27.8047 8.3125C28.0859 8.97396 28.2266 9.76562 28.2266 10.6875V10.7031C28.2266 11.6198 28.0833 12.4089 27.7969 13.0703C27.5156 13.7318 27.1146 14.2422 26.5938 14.6016C26.0729 14.9557 25.4531 15.1328 24.7344 15.1328ZM23.9531 13.2422C24.3594 13.2422 24.7057 13.1406 24.9922 12.9375C25.2839 12.7344 25.5078 12.4427 25.6641 12.0625C25.8255 11.6823 25.9062 11.2292 25.9062 10.7031V10.6875C25.9062 10.1615 25.8255 9.71094 25.6641 9.33594C25.5078 8.95573 25.2839 8.66406 24.9922 8.46094C24.7057 8.2526 24.3594 8.14844 23.9531 8.14844C23.5573 8.14844 23.2109 8.2526 22.9141 8.46094C22.6224 8.66406 22.3958 8.95573 22.2344 9.33594C22.0729 9.71094 21.9922 10.1641 21.9922 10.6953V10.7109C21.9922 11.2318 22.0703 11.6823 22.2266 12.0625C22.388 12.4427 22.6146 12.7344 22.9062 12.9375C23.2031 13.1406 23.5521 13.2422 23.9531 13.2422ZM30.1562 15V3.10938H32.4375V15H30.1562ZM38.5781 15.1797C37.7083 15.1797 36.9583 15 36.3281 14.6406C35.7031 14.276 35.2214 13.7604 34.8828 13.0938C34.5443 12.4271 34.375 11.6328 34.375 10.7109V10.7031C34.375 9.79167 34.5417 9 34.875 8.32812C35.2135 7.65625 35.6901 7.13542 36.3047 6.76562C36.9245 6.39583 37.651 6.21094 38.4844 6.21094C39.3229 6.21094 40.0469 6.39062 40.6562 6.75C41.2656 7.10938 41.7344 7.61198 42.0625 8.25781C42.3906 8.90365 42.5547 9.66146 42.5547 10.5312V11.2422H35.5156V9.8125H41.4609L40.3906 11.1641V10.25C40.3906 9.73438 40.3099 9.30469 40.1484 8.96094C39.9922 8.61719 39.7734 8.35938 39.4922 8.1875C39.2161 8.01042 38.8932 7.92188 38.5234 7.92188C38.1589 7.92188 37.8333 8.01302 37.5469 8.19531C37.2656 8.3724 37.0417 8.63542 36.875 8.98438C36.7135 9.32812 36.6328 9.75 36.6328 10.25V11.1719C36.6328 11.6562 36.7135 12.0703 36.875 12.4141C37.0365 12.7578 37.2656 13.0208 37.5625 13.2031C37.8594 13.3854 38.2135 13.4766 38.625 13.4766C38.9583 13.4766 39.2422 13.4271 39.4766 13.3281C39.7109 13.2292 39.8984 13.1146 40.0391 12.9844C40.1849 12.849 40.2839 12.7266 40.3359 12.6172L40.3594 12.5703H42.4844L42.4688 12.6484C42.401 12.9193 42.2786 13.2031 42.1016 13.5C41.9245 13.7917 41.6797 14.0651 41.3672 14.3203C41.0599 14.5755 40.6745 14.7839 40.2109 14.9453C39.7526 15.1016 39.2083 15.1797 38.5781 15.1797ZM47.9922 15.0312C46.9505 15.0312 46.2005 14.849 45.7422 14.4844C45.2839 14.1146 45.0547 13.513 45.0547 12.6797V8.11719H43.7266V6.39844H45.0547V4.34375H47.3594V6.39844H49.1328V8.11719H47.3594V12.1562C47.3594 12.5417 47.4453 12.8255 47.6172 13.0078C47.7943 13.1849 48.0755 13.2734 48.4609 13.2734C48.6068 13.2734 48.7266 13.2708 48.8203 13.2656C48.9193 13.2552 49.0234 13.2448 49.1328 13.2344V14.9297C48.9922 14.9557 48.8229 14.9792 48.625 15C48.4271 15.0208 48.2161 15.0312 47.9922 15.0312ZM59.4141 15.2891C58.5182 15.2891 57.7396 15.1536 57.0781 14.8828C56.4167 14.612 55.8958 14.2318 55.5156 13.7422C55.1406 13.2474 54.9297 12.6667 54.8828 12L54.875 11.875H57.1484L57.1562 11.9531C57.1875 12.2344 57.3021 12.4818 57.5 12.6953C57.7031 12.9036 57.974 13.0677 58.3125 13.1875C58.651 13.3073 59.0391 13.3672 59.4766 13.3672C59.8984 13.3672 60.2682 13.3047 60.5859 13.1797C60.9036 13.0547 61.151 12.8828 61.3281 12.6641C61.5104 12.4401 61.6016 12.1849 61.6016 11.8984V11.8906C61.6016 11.5208 61.4505 11.224 61.1484 11C60.8516 10.776 60.3516 10.5911 59.6484 10.4453L58.4609 10.2031C57.2891 9.96354 56.4375 9.57031 55.9062 9.02344C55.375 8.47656 55.1094 7.77604 55.1094 6.92188V6.91406C55.1094 6.21615 55.2943 5.60677 55.6641 5.08594C56.0339 4.5651 56.5417 4.16146 57.1875 3.875C57.8333 3.58333 58.5729 3.4375 59.4062 3.4375C60.2812 3.4375 61.0312 3.58073 61.6562 3.86719C62.2865 4.14844 62.7786 4.53646 63.1328 5.03125C63.487 5.52083 63.6875 6.08073 63.7344 6.71094L63.7422 6.8125H61.5234L61.5078 6.71875C61.4609 6.44792 61.3464 6.21094 61.1641 6.00781C60.987 5.80469 60.7474 5.64583 60.4453 5.53125C60.1484 5.41146 59.8021 5.35156 59.4062 5.35156C59.0208 5.35156 58.6823 5.40885 58.3906 5.52344C58.099 5.63802 57.8724 5.79948 57.7109 6.00781C57.5495 6.21094 57.4688 6.45312 57.4688 6.73438V6.74219C57.4688 7.10677 57.6146 7.40625 57.9062 7.64062C58.2031 7.86979 58.6823 8.05208 59.3438 8.1875L60.5391 8.42969C61.3359 8.59115 61.9844 8.8099 62.4844 9.08594C62.9896 9.36198 63.362 9.70833 63.6016 10.125C63.8411 10.5417 63.9609 11.0443 63.9609 11.6328V11.6406C63.9609 12.3854 63.776 13.0312 63.4062 13.5781C63.0417 14.1198 62.5182 14.5417 61.8359 14.8438C61.1589 15.1406 60.3516 15.2891 59.4141 15.2891ZM65.9688 17.8516V6.39844H68.25V7.72656H68.3906C68.5417 7.41927 68.7396 7.15625 68.9844 6.9375C69.2344 6.71875 69.526 6.55208 69.8594 6.4375C70.1927 6.31771 70.5625 6.25781 70.9688 6.25781C71.6875 6.25781 72.3073 6.4375 72.8281 6.79688C73.349 7.15625 73.75 7.66667 74.0312 8.32812C74.3177 8.98438 74.4609 9.77083 74.4609 10.6875V10.7031C74.4609 11.625 74.3203 12.4167 74.0391 13.0781C73.7578 13.7396 73.3568 14.2474 72.8359 14.6016C72.3151 14.9557 71.6927 15.1328 70.9688 15.1328C70.5729 15.1328 70.2057 15.0729 69.8672 14.9531C69.5339 14.8281 69.2396 14.6536 68.9844 14.4297C68.7344 14.2057 68.5365 13.9375 68.3906 13.625H68.25V17.8516H65.9688ZM70.1875 13.2422C70.5938 13.2422 70.9401 13.1406 71.2266 12.9375C71.5182 12.7344 71.7422 12.4427 71.8984 12.0625C72.0599 11.6823 72.1406 11.2292 72.1406 10.7031V10.6875C72.1406 10.1615 72.0599 9.70833 71.8984 9.32812C71.7422 8.94792 71.5182 8.65625 71.2266 8.45312C70.9401 8.25 70.5938 8.14844 70.1875 8.14844C69.7865 8.14844 69.4375 8.25 69.1406 8.45312C68.849 8.65625 68.6224 8.94792 68.4609 9.32812C68.3047 9.70312 68.2266 10.1562 68.2266 10.6875V10.7031C68.2266 11.224 68.3073 11.6771 68.4688 12.0625C68.6302 12.4427 68.8568 12.7344 69.1484 12.9375C69.4453 13.1406 69.7917 13.2422 70.1875 13.2422ZM80.1094 15.1797C79.2396 15.1797 78.4896 15 77.8594 14.6406C77.2344 14.276 76.7526 13.7604 76.4141 13.0938C76.0755 12.4271 75.9062 11.6328 75.9062 10.7109V10.7031C75.9062 9.79167 76.0729 9 76.4062 8.32812C76.7448 7.65625 77.2214 7.13542 77.8359 6.76562C78.4557 6.39583 79.1823 6.21094 80.0156 6.21094C80.8542 6.21094 81.5781 6.39062 82.1875 6.75C82.7969 7.10938 83.2656 7.61198 83.5938 8.25781C83.9219 8.90365 84.0859 9.66146 84.0859 10.5312V11.2422H77.0469V9.8125H82.9922L81.9219 11.1641V10.25C81.9219 9.73438 81.8411 9.30469 81.6797 8.96094C81.5234 8.61719 81.3047 8.35938 81.0234 8.1875C80.7474 8.01042 80.4245 7.92188 80.0547 7.92188C79.6901 7.92188 79.3646 8.01302 79.0781 8.19531C78.7969 8.3724 78.5729 8.63542 78.4062 8.98438C78.2448 9.32812 78.1641 9.75 78.1641 10.25V11.1719C78.1641 11.6562 78.2448 12.0703 78.4062 12.4141C78.5677 12.7578 78.7969 13.0208 79.0938 13.2031C79.3906 13.3854 79.7448 13.4766 80.1562 13.4766C80.4896 13.4766 80.7734 13.4271 81.0078 13.3281C81.2422 13.2292 81.4297 13.1146 81.5703 12.9844C81.7161 12.849 81.8151 12.7266 81.8672 12.6172L81.8906 12.5703H84.0156L84 12.6484C83.9323 12.9193 83.8099 13.2031 83.6328 13.5C83.4557 13.7917 83.2109 14.0651 82.8984 14.3203C82.5911 14.5755 82.2057 14.7839 81.7422 14.9453C81.2839 15.1016 80.7396 15.1797 80.1094 15.1797ZM89.7422 15.1797C88.8464 15.1797 88.0833 15.0052 87.4531 14.6562C86.8281 14.3021 86.3516 13.7917 86.0234 13.125C85.6953 12.4531 85.5312 11.6406 85.5312 10.6875V10.6719C85.5312 9.72396 85.6953 8.91927 86.0234 8.25781C86.3516 7.59635 86.8281 7.09115 87.4531 6.74219C88.0833 6.38802 88.8464 6.21094 89.7422 6.21094C90.5026 6.21094 91.1562 6.34115 91.7031 6.60156C92.25 6.86198 92.6823 7.22917 93 7.70312C93.3177 8.17708 93.5104 8.73438 93.5781 9.375V9.39844H91.4609L91.4531 9.38281C91.375 8.96615 91.1927 8.63281 90.9062 8.38281C90.625 8.1276 90.2396 8 89.75 8C89.3438 8 88.9974 8.10417 88.7109 8.3125C88.4297 8.51562 88.2161 8.8151 88.0703 9.21094C87.9245 9.60677 87.8516 10.0938 87.8516 10.6719V10.6875C87.8516 11.2656 87.9245 11.7578 88.0703 12.1641C88.2214 12.5651 88.4375 12.8698 88.7188 13.0781C89 13.2865 89.3438 13.3906 89.75 13.3906C90.2188 13.3906 90.5938 13.2812 90.875 13.0625C91.1562 12.8438 91.3464 12.5156 91.4453 12.0781L91.4609 12.0547L93.5703 12.0469V12.1016C93.487 12.7214 93.2865 13.263 92.9688 13.7266C92.651 14.1901 92.2214 14.5495 91.6797 14.8047C91.138 15.0547 90.4922 15.1797 89.7422 15.1797ZM98.7812 15.1797C98 15.1797 97.3333 15.0729 96.7812 14.8594C96.2344 14.6406 95.8047 14.3411 95.4922 13.9609C95.1849 13.5807 95.0052 13.1458 94.9531 12.6562L94.9453 12.625H97.1875L97.2031 12.6562C97.2969 12.9219 97.474 13.1406 97.7344 13.3125C98 13.4844 98.3568 13.5703 98.8047 13.5703C99.0964 13.5703 99.3516 13.5312 99.5703 13.4531C99.7891 13.3698 99.9609 13.2578 100.086 13.1172C100.211 12.9766 100.273 12.8125 100.273 12.625V12.6094C100.273 12.3802 100.18 12.1901 99.9922 12.0391C99.8047 11.888 99.4922 11.763 99.0547 11.6641L97.6172 11.3594C97.0703 11.2448 96.6146 11.0781 96.25 10.8594C95.8854 10.6354 95.612 10.362 95.4297 10.0391C95.2526 9.71615 95.1641 9.34115 95.1641 8.91406V8.90625C95.1641 8.36458 95.3125 7.89323 95.6094 7.49219C95.9115 7.08594 96.3307 6.77083 96.8672 6.54688C97.4089 6.32292 98.0365 6.21094 98.75 6.21094C99.5 6.21094 100.138 6.32552 100.664 6.55469C101.19 6.77865 101.594 7.08073 101.875 7.46094C102.161 7.83594 102.32 8.25521 102.352 8.71875V8.75H100.234L100.227 8.71094C100.164 8.47656 100.008 8.27083 99.7578 8.09375C99.5078 7.91146 99.1693 7.82031 98.7422 7.82031C98.4818 7.82031 98.25 7.85938 98.0469 7.9375C97.8438 8.01562 97.6823 8.125 97.5625 8.26562C97.4479 8.40625 97.3906 8.57292 97.3906 8.76562V8.77344C97.3906 8.92448 97.4297 9.05729 97.5078 9.17188C97.5859 9.28646 97.7135 9.38542 97.8906 9.46875C98.0677 9.55208 98.3047 9.6276 98.6016 9.69531L100.031 10C100.891 10.1875 101.526 10.4688 101.938 10.8438C102.349 11.2188 102.555 11.724 102.555 12.3594V12.3672C102.555 12.9349 102.393 13.4297 102.07 13.8516C101.747 14.2734 101.302 14.6016 100.734 14.8359C100.167 15.0651 99.5156 15.1797 98.7812 15.1797ZM2.14062 34.9766V33.7266H5.32812C6.13542 33.7266 6.76042 33.5182 7.20312 33.1016C7.64583 32.6797 7.86719 32.099 7.86719 31.3594V31.3438C7.86719 30.599 7.64583 30.0182 7.20312 29.6016C6.76042 29.1849 6.13542 28.9766 5.32812 28.9766H2.14062V27.7266H5.6875C6.39583 27.7266 7.02083 27.8776 7.5625 28.1797C8.10417 28.4818 8.52865 28.9036 8.83594 29.4453C9.14844 29.987 9.30469 30.6146 9.30469 31.3281V31.3438C9.30469 32.0573 9.14844 32.6875 8.83594 33.2344C8.52865 33.7812 8.10417 34.2083 7.5625 34.5156C7.02083 34.8229 6.39583 34.9766 5.6875 34.9766H2.14062ZM1.4375 39V27.7266H2.84375V39H1.4375ZM11.2775 39V30.5781H12.6369V31.8281H12.7619C12.9233 31.3854 13.1968 31.0417 13.5822 30.7969C13.9676 30.5521 14.4442 30.4297 15.0119 30.4297C15.1421 30.4297 15.2697 30.4375 15.3947 30.4531C15.5249 30.4635 15.6239 30.474 15.6916 30.4844V31.8047C15.5509 31.7786 15.4129 31.7604 15.2775 31.75C15.1473 31.7344 15.0067 31.7266 14.8556 31.7266C14.4233 31.7266 14.0405 31.8125 13.7072 31.9844C13.3739 32.1562 13.1108 32.3958 12.9181 32.7031C12.7306 33.0104 12.6369 33.3698 12.6369 33.7812V39H11.2775ZM17.2425 39V30.5781H18.6019V39H17.2425ZM17.93 28.9531C17.6748 28.9531 17.4534 28.862 17.2659 28.6797C17.0836 28.4922 16.9925 28.2708 16.9925 28.0156C16.9925 27.7552 17.0836 27.5339 17.2659 27.3516C17.4534 27.1693 17.6748 27.0781 17.93 27.0781C18.1904 27.0781 18.4118 27.1693 18.5941 27.3516C18.7764 27.5339 18.8675 27.7552 18.8675 28.0156C18.8675 28.2708 18.7764 28.4922 18.5941 28.6797C18.4118 28.862 18.1904 28.9531 17.93 28.9531ZM24.4497 39.1484C23.6632 39.1484 22.9809 38.9688 22.4028 38.6094C21.8247 38.25 21.3768 37.7422 21.0591 37.0859C20.7414 36.4297 20.5825 35.6562 20.5825 34.7656V34.75C20.5825 33.875 20.7388 33.1146 21.0513 32.4688C21.369 31.8229 21.8169 31.3229 22.395 30.9688C22.9731 30.6094 23.6554 30.4297 24.4419 30.4297C25.1242 30.4297 25.7127 30.5495 26.2075 30.7891C26.7023 31.0286 27.0981 31.3516 27.395 31.7578C27.6919 32.1589 27.882 32.6094 27.9653 33.1094L27.9731 33.1562H26.6216L26.6138 33.1328C26.5096 32.7161 26.2726 32.362 25.9028 32.0703C25.533 31.7786 25.046 31.6328 24.4419 31.6328C23.9367 31.6328 23.4992 31.7604 23.1294 32.0156C22.7596 32.2708 22.4731 32.6328 22.27 33.1016C22.0721 33.5651 21.9731 34.1146 21.9731 34.75V34.7656C21.9731 35.4115 22.0747 35.974 22.2778 36.4531C22.4809 36.9271 22.7674 37.2943 23.1372 37.5547C23.507 37.8151 23.9419 37.9453 24.4419 37.9453C25.0096 37.9453 25.4731 37.8229 25.8325 37.5781C26.1919 37.3333 26.4497 36.9766 26.6059 36.5078L26.6216 36.4609L27.9653 36.4531L27.9497 36.5391C27.8351 37.0443 27.632 37.4948 27.3403 37.8906C27.0486 38.2812 26.6632 38.5885 26.1841 38.8125C25.7049 39.0365 25.1268 39.1484 24.4497 39.1484ZM33.235 39.1484C32.4329 39.1484 31.7428 38.9714 31.1647 38.6172C30.5918 38.263 30.1491 37.763 29.8366 37.1172C29.5293 36.4661 29.3756 35.7005 29.3756 34.8203V34.8125C29.3756 33.9427 29.5293 33.1797 29.8366 32.5234C30.1491 31.8672 30.5892 31.3542 31.1569 30.9844C31.7246 30.6146 32.3886 30.4297 33.1491 30.4297C33.9147 30.4297 34.5709 30.6068 35.1178 30.9609C35.6699 31.3151 36.0918 31.8099 36.3834 32.4453C36.6803 33.0755 36.8288 33.8099 36.8288 34.6484V35.1797H30.0788V34.0938H36.1334L35.4616 35.0859V34.5469C35.4616 33.8854 35.3626 33.3411 35.1647 32.9141C34.9668 32.487 34.6933 32.1693 34.3444 31.9609C33.9954 31.7474 33.5944 31.6406 33.1413 31.6406C32.6881 31.6406 32.2819 31.7526 31.9225 31.9766C31.5683 32.1953 31.2871 32.5208 31.0788 32.9531C30.8704 33.3854 30.7663 33.9167 30.7663 34.5469V35.0859C30.7663 35.6849 30.8678 36.1979 31.0709 36.625C31.2741 37.0469 31.5631 37.3724 31.9381 37.6016C32.3131 37.8255 32.7558 37.9375 33.2663 37.9375C33.6465 37.9375 33.9772 37.8854 34.2584 37.7812C34.5397 37.6771 34.7715 37.5443 34.9538 37.3828C35.136 37.2214 35.2636 37.0573 35.3366 36.8906L35.3678 36.8203H36.7272L36.7116 36.8828C36.6386 37.1693 36.5084 37.4479 36.3209 37.7188C36.1386 37.9844 35.9017 38.2266 35.61 38.4453C35.3183 38.6589 34.972 38.8307 34.5709 38.9609C34.1751 39.0859 33.7298 39.1484 33.235 39.1484ZM5.13281 63.2656C4.3099 63.2656 3.59115 63.1328 2.97656 62.8672C2.36719 62.5964 1.88281 62.2266 1.52344 61.7578C1.16927 61.2839 0.963542 60.7422 0.90625 60.1328L0.898438 60.0469H2.30469L2.3125 60.1328C2.34896 60.5078 2.49219 60.8333 2.74219 61.1094C2.9974 61.3802 3.33594 61.5911 3.75781 61.7422C4.1849 61.8932 4.66927 61.9688 5.21094 61.9688C5.72135 61.9688 6.17448 61.888 6.57031 61.7266C6.97135 61.5599 7.28646 61.3307 7.51562 61.0391C7.74479 60.7474 7.85938 60.4115 7.85938 60.0312V60.0234C7.85938 59.5547 7.6875 59.1615 7.34375 58.8438C7 58.5208 6.4401 58.2734 5.66406 58.1016L4.41406 57.8281C3.28385 57.5781 2.46094 57.1927 1.94531 56.6719C1.4349 56.1458 1.17969 55.474 1.17969 54.6562V54.6484C1.1849 54.0234 1.35417 53.4714 1.6875 52.9922C2.02604 52.513 2.49219 52.138 3.08594 51.8672C3.6849 51.5964 4.3724 51.4609 5.14844 51.4609C5.89844 51.4609 6.5625 51.5964 7.14062 51.8672C7.71875 52.1328 8.17708 52.4922 8.51562 52.9453C8.85938 53.3984 9.04948 53.9062 9.08594 54.4688L9.09375 54.5781H7.6875L7.67188 54.4766C7.61979 54.1432 7.48438 53.849 7.26562 53.5938C7.04688 53.3333 6.75521 53.1276 6.39062 52.9766C6.02604 52.8255 5.59896 52.7526 5.10938 52.7578C4.64062 52.7578 4.21875 52.8307 3.84375 52.9766C3.46875 53.1224 3.16927 53.3333 2.94531 53.6094C2.72656 53.8802 2.61719 54.2135 2.61719 54.6094V54.6172C2.61719 55.0651 2.78385 55.4427 3.11719 55.75C3.45052 56.0573 4 56.2943 4.76562 56.4609L6.01562 56.7422C6.80208 56.9141 7.4349 57.138 7.91406 57.4141C8.39323 57.6901 8.74219 58.0286 8.96094 58.4297C9.1849 58.8255 9.29688 59.2943 9.29688 59.8359V59.8438C9.29688 60.5469 9.125 61.1536 8.78125 61.6641C8.4375 62.1745 7.95312 62.5703 7.32812 62.8516C6.70312 63.1276 5.97135 63.2656 5.13281 63.2656ZM11.34 63V54.5781H12.6994V63H11.34ZM12.0275 52.9531C11.7723 52.9531 11.5509 52.862 11.3634 52.6797C11.1811 52.4922 11.09 52.2708 11.09 52.0156C11.09 51.7552 11.1811 51.5339 11.3634 51.3516C11.5509 51.1693 11.7723 51.0781 12.0275 51.0781C12.2879 51.0781 12.5093 51.1693 12.6916 51.3516C12.8739 51.5339 12.965 51.7552 12.965 52.0156C12.965 52.2708 12.8739 52.4922 12.6916 52.6797C12.5093 52.862 12.2879 52.9531 12.0275 52.9531ZM14.9066 63V62.0156L19.7659 55.8281V55.7031H14.9144V54.5781H21.3675V55.5859L16.5316 61.75V61.875H21.3909V63H14.9066ZM26.77 63.1484C25.9679 63.1484 25.2778 62.9714 24.6997 62.6172C24.1268 62.263 23.6841 61.763 23.3716 61.1172C23.0643 60.4661 22.9106 59.7005 22.9106 58.8203V58.8125C22.9106 57.9427 23.0643 57.1797 23.3716 56.5234C23.6841 55.8672 24.1242 55.3542 24.6919 54.9844C25.2596 54.6146 25.9236 54.4297 26.6841 54.4297C27.4497 54.4297 28.1059 54.6068 28.6528 54.9609C29.2049 55.3151 29.6268 55.8099 29.9184 56.4453C30.2153 57.0755 30.3638 57.8099 30.3638 58.6484V59.1797H23.6138V58.0938H29.6684L28.9966 59.0859V58.5469C28.9966 57.8854 28.8976 57.3411 28.6997 56.9141C28.5018 56.487 28.2283 56.1693 27.8794 55.9609C27.5304 55.7474 27.1294 55.6406 26.6763 55.6406C26.2231 55.6406 25.8169 55.7526 25.4575 55.9766C25.1033 56.1953 24.8221 56.5208 24.6138 56.9531C24.4054 57.3854 24.3013 57.9167 24.3013 58.5469V59.0859C24.3013 59.6849 24.4028 60.1979 24.6059 60.625C24.8091 61.0469 25.0981 61.3724 25.4731 61.6016C25.8481 61.8255 26.2908 61.9375 26.8013 61.9375C27.1815 61.9375 27.5122 61.8854 27.7934 61.7812C28.0747 61.6771 28.3065 61.5443 28.4888 61.3828C28.671 61.2214 28.7986 61.0573 28.8716 60.8906L28.9028 60.8203H30.2622L30.2466 60.8828C30.1736 61.1693 30.0434 61.4479 29.8559 61.7188C29.6736 61.9844 29.4367 62.2266 29.145 62.4453C28.8533 62.6589 28.507 62.8307 28.1059 62.9609C27.7101 63.0859 27.2648 63.1484 26.77 63.1484ZM2.14062 87V85.7578H5.625C6.47396 85.7578 7.11719 85.5885 7.55469 85.25C7.99219 84.9115 8.21094 84.4193 8.21094 83.7734V83.7578C8.21094 83.3255 8.10938 82.9635 7.90625 82.6719C7.70312 82.3802 7.39844 82.1615 6.99219 82.0156C6.59115 81.8698 6.09115 81.7969 5.49219 81.7969H2.14062V80.5859H5.09375C5.94792 80.5859 6.58854 80.4349 7.01562 80.1328C7.44792 79.8307 7.66406 79.3828 7.66406 78.7891V78.7734C7.66406 78.2005 7.46875 77.7578 7.07812 77.4453C6.69271 77.1276 6.15104 76.9688 5.45312 76.9688H2.14062V75.7266H5.75C6.44271 75.7266 7.03646 75.8411 7.53125 76.0703C8.03125 76.2995 8.41406 76.625 8.67969 77.0469C8.95052 77.4635 9.08594 77.9583 9.08594 78.5312V78.5469C9.08594 78.9375 8.9974 79.3047 8.82031 79.6484C8.64844 79.9922 8.41667 80.2812 8.125 80.5156C7.83333 80.75 7.50521 80.901 7.14062 80.9688V81.0938C7.65625 81.1562 8.10156 81.3099 8.47656 81.5547C8.85156 81.7995 9.14062 82.1172 9.34375 82.5078C9.55208 82.8932 9.65625 83.3333 9.65625 83.8281V83.8438C9.65625 84.5 9.5026 85.0651 9.19531 85.5391C8.89323 86.0078 8.45833 86.3698 7.89062 86.625C7.32292 86.875 6.63802 87 5.83594 87H2.14062ZM1.4375 87V75.7266H2.84375V87H1.4375ZM11.6213 87V78.5781H12.9806V79.8281H13.1056C13.2671 79.3854 13.5405 79.0417 13.9259 78.7969C14.3114 78.5521 14.7879 78.4297 15.3556 78.4297C15.4858 78.4297 15.6134 78.4375 15.7384 78.4531C15.8686 78.4635 15.9676 78.474 16.0353 78.4844V79.8047C15.8947 79.7786 15.7567 79.7604 15.6213 79.75C15.491 79.7344 15.3504 79.7266 15.1994 79.7266C14.7671 79.7266 14.3843 79.8125 14.0509 79.9844C13.7176 80.1562 13.4546 80.3958 13.2619 80.7031C13.0744 81.0104 12.9806 81.3698 12.9806 81.7812V87H11.6213ZM19.8675 87.1484C19.3363 87.1484 18.8571 87.0469 18.43 86.8438C18.0081 86.6406 17.6722 86.3516 17.4222 85.9766C17.1774 85.6016 17.055 85.1589 17.055 84.6484V84.6328C17.055 84.1328 17.1748 83.7057 17.4144 83.3516C17.654 82.9922 18.0029 82.7109 18.4613 82.5078C18.9196 82.3047 19.4743 82.1849 20.1253 82.1484L23.2191 81.9609V83.0469L20.2894 83.2344C19.6488 83.2708 19.18 83.4036 18.8831 83.6328C18.5915 83.862 18.4456 84.1849 18.4456 84.6016V84.6172C18.4456 85.0443 18.6071 85.3776 18.93 85.6172C19.2529 85.8516 19.6592 85.9688 20.1488 85.9688C20.6123 85.9688 21.0238 85.8776 21.3831 85.6953C21.7425 85.5078 22.0238 85.2552 22.2269 84.9375C22.4352 84.6198 22.5394 84.2604 22.5394 83.8594V81.2344C22.5394 80.7135 22.3805 80.3177 22.0628 80.0469C21.7503 79.7708 21.279 79.6328 20.6488 79.6328C20.1435 79.6328 19.7295 79.724 19.4066 79.9062C19.0836 80.0833 18.8675 80.3359 18.7581 80.6641L18.7503 80.6875H17.3909L17.3988 80.6406C17.4717 80.1979 17.654 79.8125 17.9456 79.4844C18.2425 79.151 18.6253 78.8932 19.0941 78.7109C19.5628 78.5234 20.0967 78.4297 20.6956 78.4297C21.3831 78.4297 21.9639 78.5417 22.4378 78.7656C22.917 78.9896 23.279 79.3125 23.5238 79.7344C23.7738 80.151 23.8988 80.651 23.8988 81.2344V87H22.5394V85.7578H22.4144C22.2373 86.0547 22.0211 86.3073 21.7659 86.5156C21.5159 86.724 21.2321 86.8828 20.9144 86.9922C20.5967 87.0964 20.2477 87.1484 19.8675 87.1484ZM26.2231 87V78.5781H27.5825V79.8438H27.7075C27.921 79.3958 28.2283 79.0495 28.6294 78.8047C29.0304 78.5547 29.5408 78.4297 30.1606 78.4297C31.1085 78.4297 31.8351 78.7005 32.3403 79.2422C32.8507 79.7786 33.1059 80.5469 33.1059 81.5469V87H31.7466V81.875C31.7466 81.1146 31.5851 80.5521 31.2622 80.1875C30.9445 79.8177 30.4497 79.6328 29.7778 79.6328C29.3299 79.6328 28.9419 79.7292 28.6138 79.9219C28.2856 80.1146 28.0304 80.388 27.8481 80.7422C27.671 81.0964 27.5825 81.5208 27.5825 82.0156V87H26.2231ZM38.5163 87.1484C37.8079 87.1484 37.1881 86.9688 36.6569 86.6094C36.1256 86.25 35.7142 85.7448 35.4225 85.0938C35.1308 84.4375 34.985 83.6719 34.985 82.7969V82.7812C34.985 81.901 35.1308 81.1354 35.4225 80.4844C35.7142 79.8333 36.123 79.3281 36.6491 78.9688C37.1803 78.6094 37.8027 78.4297 38.5163 78.4297C38.9017 78.4297 39.2636 78.4922 39.6022 78.6172C39.9459 78.737 40.2506 78.9062 40.5163 79.125C40.7819 79.3438 40.9902 79.6042 41.1413 79.9062H41.2663V75.2344H42.6256V87H41.2663V85.6562H41.1413C40.9694 85.9688 40.7532 86.237 40.4928 86.4609C40.2324 86.6797 39.9355 86.849 39.6022 86.9688C39.2689 87.0885 38.9069 87.1484 38.5163 87.1484ZM38.8288 85.9453C39.3392 85.9453 39.7793 85.8177 40.1491 85.5625C40.5189 85.3073 40.8027 84.9453 41.0006 84.4766C41.1985 84.0026 41.2975 83.4427 41.2975 82.7969V82.7812C41.2975 82.1302 41.1985 81.5703 41.0006 81.1016C40.8027 80.6328 40.5189 80.2708 40.1491 80.0156C39.7793 79.7604 39.3392 79.6328 38.8288 79.6328C38.3183 79.6328 37.8782 79.7604 37.5084 80.0156C37.1439 80.2656 36.8626 80.625 36.6647 81.0938C36.472 81.5625 36.3756 82.125 36.3756 82.7812V82.7969C36.3756 83.4479 36.472 84.0104 36.6647 84.4844C36.8626 84.9531 37.1439 85.3151 37.5084 85.5703C37.8782 85.8203 38.3183 85.9453 38.8288 85.9453ZM1.4375 111V99.7266H2.84375V111H1.4375ZM5.38688 111V102.578H6.74625V103.844H6.87125C7.08479 103.396 7.39208 103.049 7.79313 102.805C8.19417 102.555 8.70458 102.43 9.32438 102.43C10.2723 102.43 10.9989 102.701 11.5041 103.242C12.0145 103.779 12.2697 104.547 12.2697 105.547V111H10.9103V105.875C10.9103 105.115 10.7489 104.552 10.4259 104.188C10.1082 103.818 9.61344 103.633 8.94156 103.633C8.49365 103.633 8.10563 103.729 7.7775 103.922C7.44938 104.115 7.19417 104.388 7.01188 104.742C6.83479 105.096 6.74625 105.521 6.74625 106.016V111H5.38688ZM17.5628 111.062C16.6982 111.062 16.0706 110.888 15.68 110.539C15.2946 110.19 15.1019 109.615 15.1019 108.812V103.703H13.7738V102.578H15.1019V100.398H16.5081V102.578H18.3519V103.703H16.5081V108.469C16.5081 108.964 16.6019 109.32 16.7894 109.539C16.9769 109.753 17.2894 109.859 17.7269 109.859C17.8467 109.859 17.9482 109.857 18.0316 109.852C18.1201 109.846 18.2269 109.839 18.3519 109.828V110.984C18.2217 111.005 18.0915 111.023 17.9613 111.039C17.831 111.055 17.6982 111.062 17.5628 111.062ZM23.5513 111.148C22.7492 111.148 22.0591 110.971 21.4809 110.617C20.908 110.263 20.4653 109.763 20.1528 109.117C19.8455 108.466 19.6919 107.701 19.6919 106.82V106.812C19.6919 105.943 19.8455 105.18 20.1528 104.523C20.4653 103.867 20.9054 103.354 21.4731 102.984C22.0408 102.615 22.7049 102.43 23.4653 102.43C24.2309 102.43 24.8872 102.607 25.4341 102.961C25.9861 103.315 26.408 103.81 26.6997 104.445C26.9966 105.076 27.145 105.81 27.145 106.648V107.18H20.395V106.094H26.4497L25.7778 107.086V106.547C25.7778 105.885 25.6789 105.341 25.4809 104.914C25.283 104.487 25.0096 104.169 24.6606 103.961C24.3117 103.747 23.9106 103.641 23.4575 103.641C23.0044 103.641 22.5981 103.753 22.2388 103.977C21.8846 104.195 21.6033 104.521 21.395 104.953C21.1867 105.385 21.0825 105.917 21.0825 106.547V107.086C21.0825 107.685 21.1841 108.198 21.3872 108.625C21.5903 109.047 21.8794 109.372 22.2544 109.602C22.6294 109.826 23.0721 109.938 23.5825 109.938C23.9627 109.938 24.2934 109.885 24.5747 109.781C24.8559 109.677 25.0877 109.544 25.27 109.383C25.4523 109.221 25.5799 109.057 25.6528 108.891L25.6841 108.82H27.0434L27.0278 108.883C26.9549 109.169 26.8247 109.448 26.6372 109.719C26.4549 109.984 26.2179 110.227 25.9263 110.445C25.6346 110.659 25.2882 110.831 24.8872 110.961C24.4914 111.086 24.046 111.148 23.5513 111.148ZM29.0944 111V102.578H30.4538V103.828H30.5788C30.7402 103.385 31.0136 103.042 31.3991 102.797C31.7845 102.552 32.261 102.43 32.8288 102.43C32.959 102.43 33.0866 102.438 33.2116 102.453C33.3418 102.464 33.4407 102.474 33.5084 102.484V103.805C33.3678 103.779 33.2298 103.76 33.0944 103.75C32.9642 103.734 32.8235 103.727 32.6725 103.727C32.2402 103.727 31.8574 103.812 31.5241 103.984C31.1907 104.156 30.9277 104.396 30.735 104.703C30.5475 105.01 30.4538 105.37 30.4538 105.781V111H29.0944ZM35.1844 111V102.578H36.5438V103.844H36.6688C36.8823 103.396 37.1896 103.049 37.5906 102.805C37.9917 102.555 38.5021 102.43 39.1219 102.43C40.0698 102.43 40.7964 102.701 41.3016 103.242C41.812 103.779 42.0672 104.547 42.0672 105.547V111H40.7078V105.875C40.7078 105.115 40.5464 104.552 40.2234 104.188C39.9057 103.818 39.4109 103.633 38.7391 103.633C38.2911 103.633 37.9031 103.729 37.575 103.922C37.2469 104.115 36.9917 104.388 36.8094 104.742C36.6323 105.096 36.5438 105.521 36.5438 106.016V111H35.1844ZM46.6806 111.148C46.1494 111.148 45.6702 111.047 45.2431 110.844C44.8213 110.641 44.4853 110.352 44.2353 109.977C43.9905 109.602 43.8681 109.159 43.8681 108.648V108.633C43.8681 108.133 43.9879 107.706 44.2275 107.352C44.4671 106.992 44.816 106.711 45.2744 106.508C45.7327 106.305 46.2874 106.185 46.9384 106.148L50.0322 105.961V107.047L47.1025 107.234C46.4619 107.271 45.9931 107.404 45.6963 107.633C45.4046 107.862 45.2588 108.185 45.2588 108.602V108.617C45.2588 109.044 45.4202 109.378 45.7431 109.617C46.066 109.852 46.4723 109.969 46.9619 109.969C47.4254 109.969 47.8369 109.878 48.1963 109.695C48.5556 109.508 48.8369 109.255 49.04 108.938C49.2483 108.62 49.3525 108.26 49.3525 107.859V105.234C49.3525 104.714 49.1936 104.318 48.8759 104.047C48.5634 103.771 48.0921 103.633 47.4619 103.633C46.9567 103.633 46.5426 103.724 46.2197 103.906C45.8968 104.083 45.6806 104.336 45.5713 104.664L45.5634 104.688H44.2041L44.2119 104.641C44.2848 104.198 44.4671 103.812 44.7588 103.484C45.0556 103.151 45.4384 102.893 45.9072 102.711C46.3759 102.523 46.9098 102.43 47.5088 102.43C48.1963 102.43 48.777 102.542 49.2509 102.766C49.7301 102.99 50.0921 103.312 50.3369 103.734C50.5869 104.151 50.7119 104.651 50.7119 105.234V111H49.3525V109.758H49.2275C49.0504 110.055 48.8343 110.307 48.5791 110.516C48.3291 110.724 48.0452 110.883 47.7275 110.992C47.4098 111.096 47.0608 111.148 46.6806 111.148ZM53.1144 111V99.2344H54.4738V111H53.1144ZM65.1303 111.266C64.3074 111.266 63.5886 111.133 62.9741 110.867C62.3647 110.596 61.8803 110.227 61.5209 109.758C61.1668 109.284 60.961 108.742 60.9038 108.133L60.8959 108.047H62.3022L62.31 108.133C62.3465 108.508 62.4897 108.833 62.7397 109.109C62.9949 109.38 63.3334 109.591 63.7553 109.742C64.1824 109.893 64.6668 109.969 65.2084 109.969C65.7189 109.969 66.172 109.888 66.5678 109.727C66.9689 109.56 67.284 109.331 67.5131 109.039C67.7423 108.747 67.8569 108.411 67.8569 108.031V108.023C67.8569 107.555 67.685 107.161 67.3413 106.844C66.9975 106.521 66.4376 106.273 65.6616 106.102L64.4116 105.828C63.2814 105.578 62.4584 105.193 61.9428 104.672C61.4324 104.146 61.1772 103.474 61.1772 102.656V102.648C61.1824 102.023 61.3517 101.471 61.685 100.992C62.0235 100.513 62.4897 100.138 63.0834 99.8672C63.6824 99.5964 64.3699 99.4609 65.1459 99.4609C65.8959 99.4609 66.56 99.5964 67.1381 99.8672C67.7163 100.133 68.1746 100.492 68.5131 100.945C68.8569 101.398 69.047 101.906 69.0834 102.469L69.0913 102.578H67.685L67.6694 102.477C67.6173 102.143 67.4819 101.849 67.2631 101.594C67.0444 101.333 66.7527 101.128 66.3881 100.977C66.0235 100.826 65.5965 100.753 65.1069 100.758C64.6381 100.758 64.2163 100.831 63.8413 100.977C63.4663 101.122 63.1668 101.333 62.9428 101.609C62.7241 101.88 62.6147 102.214 62.6147 102.609V102.617C62.6147 103.065 62.7814 103.443 63.1147 103.75C63.448 104.057 63.9975 104.294 64.7631 104.461L66.0131 104.742C66.7996 104.914 67.4324 105.138 67.9116 105.414C68.3907 105.69 68.7397 106.029 68.9584 106.43C69.1824 106.826 69.2944 107.294 69.2944 107.836V107.844C69.2944 108.547 69.1225 109.154 68.7788 109.664C68.435 110.174 67.9506 110.57 67.3256 110.852C66.7006 111.128 65.9689 111.266 65.1303 111.266ZM74.2984 111.062C73.4339 111.062 72.8063 110.888 72.4156 110.539C72.0302 110.19 71.8375 109.615 71.8375 108.812V103.703H70.5094V102.578H71.8375V100.398H73.2438V102.578H75.0875V103.703H73.2438V108.469C73.2438 108.964 73.3375 109.32 73.525 109.539C73.7125 109.753 74.025 109.859 74.4625 109.859C74.5823 109.859 74.6839 109.857 74.7672 109.852C74.8557 109.846 74.9625 109.839 75.0875 109.828V110.984C74.9573 111.005 74.8271 111.023 74.6969 111.039C74.5667 111.055 74.4339 111.062 74.2984 111.062ZM80.3103 111.148C79.5134 111.148 78.8233 110.974 78.24 110.625C77.6619 110.271 77.214 109.768 76.8962 109.117C76.5837 108.466 76.4275 107.693 76.4275 106.797V106.781C76.4275 105.88 76.5837 105.104 76.8962 104.453C77.214 103.802 77.6619 103.302 78.24 102.953C78.8233 102.604 79.5134 102.43 80.3103 102.43C81.1124 102.43 81.8025 102.604 82.3806 102.953C82.9587 103.302 83.4041 103.802 83.7166 104.453C84.0343 105.104 84.1931 105.88 84.1931 106.781V106.797C84.1931 107.693 84.0343 108.466 83.7166 109.117C83.4041 109.768 82.9587 110.271 82.3806 110.625C81.8025 110.974 81.1124 111.148 80.3103 111.148ZM80.3103 109.945C80.8416 109.945 81.2921 109.82 81.6619 109.57C82.0317 109.32 82.3129 108.961 82.5056 108.492C82.7035 108.023 82.8025 107.458 82.8025 106.797V106.781C82.8025 106.115 82.7035 105.547 82.5056 105.078C82.3129 104.609 82.0317 104.253 81.6619 104.008C81.2921 103.758 80.8416 103.633 80.3103 103.633C79.7791 103.633 79.3285 103.758 78.9587 104.008C78.589 104.253 78.3051 104.609 78.1072 105.078C77.9145 105.547 77.8181 106.115 77.8181 106.781V106.797C77.8181 107.458 77.9145 108.023 78.1072 108.492C78.3051 108.961 78.589 109.32 78.9587 109.57C79.3285 109.82 79.7791 109.945 80.3103 109.945ZM86.1425 111V102.578H87.5019V103.828H87.6269C87.7883 103.385 88.0618 103.042 88.4472 102.797C88.8326 102.552 89.3092 102.43 89.8769 102.43C90.0071 102.43 90.1347 102.438 90.2597 102.453C90.3899 102.464 90.4889 102.474 90.5566 102.484V103.805C90.4159 103.779 90.2779 103.76 90.1425 103.75C90.0123 103.734 89.8717 103.727 89.7206 103.727C89.2883 103.727 88.9055 103.812 88.5722 103.984C88.2389 104.156 87.9758 104.396 87.7831 104.703C87.5956 105.01 87.5019 105.37 87.5019 105.781V111H86.1425ZM94.3887 111.148C93.8575 111.148 93.3783 111.047 92.9512 110.844C92.5294 110.641 92.1934 110.352 91.9434 109.977C91.6986 109.602 91.5762 109.159 91.5762 108.648V108.633C91.5762 108.133 91.696 107.706 91.9356 107.352C92.1752 106.992 92.5242 106.711 92.9825 106.508C93.4408 106.305 93.9955 106.185 94.6466 106.148L97.7403 105.961V107.047L94.8106 107.234C94.17 107.271 93.7012 107.404 93.4044 107.633C93.1127 107.862 92.9669 108.185 92.9669 108.602V108.617C92.9669 109.044 93.1283 109.378 93.4512 109.617C93.7742 109.852 94.1804 109.969 94.67 109.969C95.1335 109.969 95.545 109.878 95.9044 109.695C96.2637 109.508 96.545 109.255 96.7481 108.938C96.9565 108.62 97.0606 108.26 97.0606 107.859V105.234C97.0606 104.714 96.9018 104.318 96.5841 104.047C96.2716 103.771 95.8002 103.633 95.17 103.633C94.6648 103.633 94.2507 103.724 93.9278 103.906C93.6049 104.083 93.3887 104.336 93.2794 104.664L93.2716 104.688H91.9122L91.92 104.641C91.9929 104.198 92.1752 103.812 92.4669 103.484C92.7637 103.151 93.1466 102.893 93.6153 102.711C94.0841 102.523 94.6179 102.43 95.2169 102.43C95.9044 102.43 96.4851 102.542 96.9591 102.766C97.4382 102.99 97.8002 103.312 98.045 103.734C98.295 104.151 98.42 104.651 98.42 105.234V111H97.0606V109.758H96.9356C96.7585 110.055 96.5424 110.307 96.2872 110.516C96.0372 110.724 95.7533 110.883 95.4356 110.992C95.1179 111.096 94.769 111.148 94.3887 111.148ZM104.213 113.969C103.536 113.969 102.945 113.872 102.44 113.68C101.934 113.492 101.531 113.224 101.229 112.875C100.932 112.531 100.747 112.13 100.674 111.672L100.69 111.664H102.096L102.104 111.672C102.177 111.99 102.395 112.25 102.76 112.453C103.125 112.661 103.609 112.766 104.213 112.766C104.968 112.766 105.557 112.594 105.979 112.25C106.406 111.911 106.619 111.432 106.619 110.812V109.109H106.494C106.317 109.417 106.096 109.68 105.83 109.898C105.565 110.117 105.265 110.284 104.932 110.398C104.599 110.508 104.239 110.562 103.854 110.562C103.13 110.562 102.502 110.391 101.971 110.047C101.445 109.698 101.039 109.219 100.752 108.609C100.466 108 100.323 107.302 100.323 106.516V106.5C100.323 105.714 100.466 105.016 100.752 104.406C101.044 103.792 101.455 103.31 101.987 102.961C102.518 102.607 103.151 102.43 103.885 102.43C104.281 102.43 104.645 102.492 104.979 102.617C105.312 102.742 105.606 102.919 105.862 103.148C106.122 103.378 106.338 103.651 106.51 103.969H106.604V102.578H107.963V110.883C107.963 111.508 107.809 112.052 107.502 112.516C107.2 112.979 106.768 113.336 106.205 113.586C105.643 113.841 104.979 113.969 104.213 113.969ZM104.151 109.359C104.671 109.359 105.117 109.24 105.487 109C105.862 108.755 106.148 108.419 106.346 107.992C106.549 107.565 106.651 107.073 106.651 106.516V106.5C106.651 105.943 106.549 105.448 106.346 105.016C106.148 104.583 105.862 104.245 105.487 104C105.117 103.755 104.671 103.633 104.151 103.633C103.63 103.633 103.187 103.755 102.823 104C102.463 104.245 102.187 104.583 101.994 105.016C101.807 105.448 101.713 105.943 101.713 106.5V106.516C101.713 107.073 101.807 107.565 101.994 107.992C102.187 108.419 102.463 108.755 102.823 109C103.187 109.24 103.63 109.359 104.151 109.359ZM113.772 111.148C112.97 111.148 112.28 110.971 111.702 110.617C111.129 110.263 110.686 109.763 110.373 109.117C110.066 108.466 109.912 107.701 109.912 106.82V106.812C109.912 105.943 110.066 105.18 110.373 104.523C110.686 103.867 111.126 103.354 111.694 102.984C112.261 102.615 112.926 102.43 113.686 102.43C114.452 102.43 115.108 102.607 115.655 102.961C116.207 103.315 116.629 103.81 116.92 104.445C117.217 105.076 117.366 105.81 117.366 106.648V107.18H110.616V106.094H116.67L115.998 107.086V106.547C115.998 105.885 115.899 105.341 115.702 104.914C115.504 104.487 115.23 104.169 114.881 103.961C114.532 103.747 114.131 103.641 113.678 103.641C113.225 103.641 112.819 103.753 112.459 103.977C112.105 104.195 111.824 104.521 111.616 104.953C111.407 105.385 111.303 105.917 111.303 106.547V107.086C111.303 107.685 111.405 108.198 111.608 108.625C111.811 109.047 112.1 109.372 112.475 109.602C112.85 109.826 113.293 109.938 113.803 109.938C114.183 109.938 114.514 109.885 114.795 109.781C115.077 109.677 115.308 109.544 115.491 109.383C115.673 109.221 115.801 109.057 115.873 108.891L115.905 108.82H117.264L117.248 108.883C117.176 109.169 117.045 109.448 116.858 109.719C116.676 109.984 116.439 110.227 116.147 110.445C115.855 110.659 115.509 110.831 115.108 110.961C114.712 111.086 114.267 111.148 113.772 111.148ZM1.4375 135V123.727H2.80469L9.26562 132.992L8.32812 132.5H9.04688V123.727H10.4375V135H9.07031L2.60938 125.766L3.54688 126.258H2.82812V135H1.4375ZM16.4181 135.148C15.616 135.148 14.9259 134.971 14.3478 134.617C13.7749 134.263 13.3322 133.763 13.0197 133.117C12.7124 132.466 12.5588 131.701 12.5588 130.82V130.812C12.5588 129.943 12.7124 129.18 13.0197 128.523C13.3322 127.867 13.7723 127.354 14.34 126.984C14.9077 126.615 15.5718 126.43 16.3322 126.43C17.0978 126.43 17.7541 126.607 18.3009 126.961C18.853 127.315 19.2749 127.81 19.5666 128.445C19.8634 129.076 20.0119 129.81 20.0119 130.648V131.18H13.2619V130.094H19.3166L18.6447 131.086V130.547C18.6447 129.885 18.5457 129.341 18.3478 128.914C18.1499 128.487 17.8765 128.169 17.5275 127.961C17.1785 127.747 16.7775 127.641 16.3244 127.641C15.8713 127.641 15.465 127.753 15.1056 127.977C14.7515 128.195 14.4702 128.521 14.2619 128.953C14.0535 129.385 13.9494 129.917 13.9494 130.547V131.086C13.9494 131.685 14.0509 132.198 14.2541 132.625C14.4572 133.047 14.7463 133.372 15.1213 133.602C15.4963 133.826 15.939 133.938 16.4494 133.938C16.8296 133.938 17.1603 133.885 17.4416 133.781C17.7228 133.677 17.9546 133.544 18.1369 133.383C18.3192 133.221 18.4468 133.057 18.5197 132.891L18.5509 132.82H19.9103L19.8947 132.883C19.8218 133.169 19.6916 133.448 19.5041 133.719C19.3218 133.984 19.0848 134.227 18.7931 134.445C18.5015 134.659 18.1551 134.831 17.7541 134.961C17.3582 135.086 16.9129 135.148 16.4181 135.148ZM24.9534 135.062C24.0889 135.062 23.4613 134.888 23.0706 134.539C22.6852 134.19 22.4925 133.615 22.4925 132.812V127.703H21.1644V126.578H22.4925V124.398H23.8988V126.578H25.7425V127.703H23.8988V132.469C23.8988 132.964 23.9925 133.32 24.18 133.539C24.3675 133.753 24.68 133.859 25.1175 133.859C25.2373 133.859 25.3389 133.857 25.4222 133.852C25.5107 133.846 25.6175 133.839 25.7425 133.828V134.984C25.6123 135.005 25.4821 135.023 25.3519 135.039C25.2217 135.055 25.0889 135.062 24.9534 135.062ZM29.2388 135L26.8794 126.578H28.2388L29.895 133.312H30.02L31.9028 126.578H33.1919L35.0747 133.312H35.1997L36.8559 126.578H38.2075L35.8481 135H34.4809L32.5981 128.484H32.4731L30.5981 135H29.2388ZM42.9928 135.148C42.1959 135.148 41.5058 134.974 40.9225 134.625C40.3444 134.271 39.8965 133.768 39.5788 133.117C39.2663 132.466 39.11 131.693 39.11 130.797V130.781C39.11 129.88 39.2663 129.104 39.5788 128.453C39.8965 127.802 40.3444 127.302 40.9225 126.953C41.5058 126.604 42.1959 126.43 42.9928 126.43C43.7949 126.43 44.485 126.604 45.0631 126.953C45.6413 127.302 46.0866 127.802 46.3991 128.453C46.7168 129.104 46.8756 129.88 46.8756 130.781V130.797C46.8756 131.693 46.7168 132.466 46.3991 133.117C46.0866 133.768 45.6413 134.271 45.0631 134.625C44.485 134.974 43.7949 135.148 42.9928 135.148ZM42.9928 133.945C43.5241 133.945 43.9746 133.82 44.3444 133.57C44.7142 133.32 44.9954 132.961 45.1881 132.492C45.386 132.023 45.485 131.458 45.485 130.797V130.781C45.485 130.115 45.386 129.547 45.1881 129.078C44.9954 128.609 44.7142 128.253 44.3444 128.008C43.9746 127.758 43.5241 127.633 42.9928 127.633C42.4616 127.633 42.011 127.758 41.6413 128.008C41.2715 128.253 40.9876 128.609 40.7897 129.078C40.597 129.547 40.5006 130.115 40.5006 130.781V130.797C40.5006 131.458 40.597 132.023 40.7897 132.492C40.9876 132.961 41.2715 133.32 41.6413 133.57C42.011 133.82 42.4616 133.945 42.9928 133.945ZM48.825 135V126.578H50.1844V127.828H50.3094C50.4708 127.385 50.7443 127.042 51.1297 126.797C51.5151 126.552 51.9917 126.43 52.5594 126.43C52.6896 126.43 52.8172 126.438 52.9422 126.453C53.0724 126.464 53.1714 126.474 53.2391 126.484V127.805C53.0984 127.779 52.9604 127.76 52.825 127.75C52.6948 127.734 52.5542 127.727 52.4031 127.727C51.9708 127.727 51.588 127.812 51.2547 127.984C50.9214 128.156 50.6583 128.396 50.4656 128.703C50.2781 129.01 50.1844 129.37 50.1844 129.781V135H48.825ZM54.8369 135V123.234H56.1963V135H54.8369ZM60.1416 135L56.8525 130.875L57.8525 130.008L61.8525 135H60.1416ZM56.0244 131.969L55.9619 130.258H56.3213L59.9619 126.578H61.6103L57.6103 130.438L57.2822 130.758L56.0244 131.969ZM70.7278 135V124.992H67.095V123.727H75.7669V124.992H72.1341V135H70.7278ZM77.31 137.953C77.2215 137.953 77.1225 137.948 77.0131 137.938C76.9037 137.932 76.8022 137.922 76.7084 137.906V136.789C76.7918 136.805 76.8829 136.815 76.9819 136.82C77.0808 136.826 77.1772 136.828 77.2709 136.828C77.6564 136.828 77.9715 136.729 78.2162 136.531C78.4662 136.333 78.6668 135.992 78.8178 135.508L78.9741 135.008L75.8569 126.578H77.31L79.9037 134.359L79.3647 133.508H80.0053L79.4662 134.359L82.0522 126.578H83.4819L80.1928 135.516C79.9636 136.146 79.7215 136.638 79.4662 136.992C79.211 137.346 78.9116 137.594 78.5678 137.734C78.2293 137.88 77.81 137.953 77.31 137.953ZM85.1188 137.812V126.578H86.4781V127.922H86.6031C86.775 127.609 86.9911 127.344 87.2516 127.125C87.512 126.901 87.8089 126.729 88.1422 126.609C88.4755 126.49 88.8375 126.43 89.2281 126.43C89.9417 126.43 90.5615 126.612 91.0875 126.977C91.6188 127.336 92.0302 127.841 92.3219 128.492C92.6135 129.143 92.7594 129.906 92.7594 130.781V130.797C92.7594 131.677 92.6135 132.443 92.3219 133.094C92.0302 133.745 91.6188 134.25 91.0875 134.609C90.5615 134.969 89.9417 135.148 89.2281 135.148C88.8427 135.148 88.4781 135.089 88.1344 134.969C87.7958 134.844 87.4938 134.672 87.2281 134.453C86.9677 134.234 86.7594 133.974 86.6031 133.672H86.4781V137.812H85.1188ZM88.9156 133.945C89.4313 133.945 89.8714 133.82 90.2359 133.57C90.6005 133.315 90.8792 132.953 91.0719 132.484C91.2698 132.01 91.3688 131.448 91.3688 130.797V130.781C91.3688 130.125 91.2698 129.562 91.0719 129.094C90.8792 128.625 90.6005 128.266 90.2359 128.016C89.8714 127.76 89.4313 127.633 88.9156 127.633C88.4052 127.633 87.9651 127.76 87.5953 128.016C87.2255 128.271 86.9417 128.633 86.7438 129.102C86.5458 129.57 86.4469 130.13 86.4469 130.781V130.797C86.4469 131.443 86.5458 132.003 86.7438 132.477C86.9417 132.945 87.2255 133.307 87.5953 133.562C87.9651 133.818 88.4052 133.945 88.9156 133.945ZM98.1619 135.148C97.3598 135.148 96.6697 134.971 96.0916 134.617C95.5186 134.263 95.0759 133.763 94.7634 133.117C94.4561 132.466 94.3025 131.701 94.3025 130.82V130.812C94.3025 129.943 94.4561 129.18 94.7634 128.523C95.0759 127.867 95.516 127.354 96.0837 126.984C96.6515 126.615 97.3155 126.43 98.0759 126.43C98.8416 126.43 99.4978 126.607 100.045 126.961C100.597 127.315 101.019 127.81 101.31 128.445C101.607 129.076 101.756 129.81 101.756 130.648V131.18H95.0056V130.094H101.06L100.388 131.086V130.547C100.388 129.885 100.289 129.341 100.092 128.914C99.8936 128.487 99.6202 128.169 99.2712 127.961C98.9223 127.747 98.5212 127.641 98.0681 127.641C97.615 127.641 97.2087 127.753 96.8494 127.977C96.4952 128.195 96.214 128.521 96.0056 128.953C95.7973 129.385 95.6931 129.917 95.6931 130.547V131.086C95.6931 131.685 95.7947 132.198 95.9978 132.625C96.2009 133.047 96.49 133.372 96.865 133.602C97.24 133.826 97.6827 133.938 98.1931 133.938C98.5733 133.938 98.9041 133.885 99.1853 133.781C99.4666 133.677 99.6983 133.544 99.8806 133.383C100.063 133.221 100.191 133.057 100.263 132.891L100.295 132.82H101.654L101.638 132.883C101.566 133.169 101.435 133.448 101.248 133.719C101.066 133.984 100.829 134.227 100.537 134.445C100.245 134.659 99.8989 134.831 99.4978 134.961C99.102 135.086 98.6567 135.148 98.1619 135.148Z" fill="black"/>
<path d="M233.086 41.8359C232.393 41.8359 231.75 41.7109 231.156 41.4609C230.562 41.2109 230.081 40.8516 229.711 40.3828C229.346 39.9141 229.151 39.3516 229.125 38.6953V38.6875L230.484 38.6797V38.6953C230.536 39.0547 230.659 39.3802 230.852 39.6719C231.044 39.9635 231.323 40.1953 231.688 40.3672C232.057 40.5339 232.529 40.6172 233.102 40.6172C233.69 40.6172 234.161 40.5391 234.516 40.3828C234.875 40.2214 235.135 40.0078 235.297 39.7422C235.458 39.4714 235.539 39.1745 235.539 38.8516V38.8359C235.539 38.4089 235.404 38.0547 235.133 37.7734C234.867 37.487 234.346 37.25 233.57 37.0625L232.406 36.7812C231.76 36.625 231.214 36.4219 230.766 36.1719C230.323 35.9167 229.987 35.6042 229.758 35.2344C229.529 34.8646 229.414 34.4245 229.414 33.9141V33.8984C229.414 33.2891 229.573 32.7604 229.891 32.3125C230.214 31.8594 230.651 31.5104 231.203 31.2656C231.755 31.0156 232.383 30.8906 233.086 30.8906C233.758 30.8906 234.367 31.0182 234.914 31.2734C235.466 31.5286 235.911 31.888 236.25 32.3516C236.589 32.8099 236.768 33.349 236.789 33.9688V33.9766L235.43 33.9844V33.9688C235.393 33.5729 235.268 33.237 235.055 32.9609C234.846 32.6849 234.573 32.474 234.234 32.3281C233.896 32.1823 233.513 32.1094 233.086 32.1094C232.581 32.1094 232.156 32.1927 231.812 32.3594C231.469 32.5208 231.208 32.7318 231.031 32.9922C230.859 33.2474 230.773 33.5182 230.773 33.8047V33.8203C230.773 34.0703 230.831 34.3021 230.945 34.5156C231.065 34.7292 231.258 34.9193 231.523 35.0859C231.789 35.2526 232.148 35.3906 232.602 35.5L233.766 35.7812C234.771 36.0208 235.544 36.3672 236.086 36.8203C236.628 37.2734 236.898 37.9089 236.898 38.7266V38.7422C236.898 39.4141 236.721 39.9818 236.367 40.4453C236.013 40.9036 235.547 41.25 234.969 41.4844C234.391 41.7188 233.763 41.8359 233.086 41.8359ZM232.586 43.1328V29.5938H233.523V43.1328H232.586ZM239.176 42V41.0312L242.988 36.9062C243.468 36.3854 243.843 35.9557 244.113 35.6172C244.384 35.2734 244.574 34.9635 244.684 34.6875C244.793 34.4115 244.848 34.1094 244.848 33.7812V33.7656C244.848 33.3698 244.762 33.0156 244.59 32.7031C244.418 32.3906 244.173 32.1432 243.856 31.9609C243.538 31.7786 243.158 31.6875 242.715 31.6875C242.267 31.6875 241.874 31.7812 241.535 31.9688C241.197 32.151 240.934 32.4089 240.746 32.7422C240.559 33.0703 240.465 33.4557 240.465 33.8984L240.457 33.9141L239.113 33.9062L239.098 33.8984C239.103 33.2318 239.264 32.6406 239.582 32.125C239.9 31.6042 240.337 31.1979 240.895 30.9062C241.452 30.6094 242.09 30.4609 242.809 30.4609C243.465 30.4609 244.056 30.599 244.582 30.875C245.108 31.1458 245.522 31.5182 245.824 31.9922C246.132 32.4661 246.285 33.0078 246.285 33.6172V33.6328C246.285 34.0599 246.21 34.4714 246.059 34.8672C245.913 35.263 245.653 35.7031 245.278 36.1875C244.903 36.6667 244.374 37.2578 243.692 37.9609L240.778 40.9688L241.129 40.3203V40.9688L240.785 40.7344H246.473V42H239.176ZM252.36 30.4609C252.875 30.4609 253.383 30.5599 253.883 30.7578C254.388 30.9557 254.844 31.276 255.25 31.7188C255.662 32.1615 255.99 32.7474 256.235 33.4766C256.479 34.2005 256.602 35.0938 256.602 36.1562V36.1719C256.602 37.4531 256.43 38.5495 256.086 39.4609C255.743 40.3672 255.248 41.0625 254.602 41.5469C253.956 42.026 253.177 42.2656 252.266 42.2656C251.636 42.2656 251.065 42.151 250.555 41.9219C250.05 41.6875 249.628 41.362 249.289 40.9453C248.951 40.5286 248.716 40.0443 248.586 39.4922L248.563 39.3906H249.977L250.008 39.4766C250.123 39.7891 250.284 40.0599 250.493 40.2891C250.706 40.5182 250.961 40.6953 251.258 40.8203C251.56 40.9453 251.901 41.0078 252.282 41.0078C252.964 41.0078 253.519 40.8099 253.946 40.4141C254.373 40.013 254.69 39.4818 254.899 38.8203C255.107 38.1589 255.224 37.4375 255.25 36.6562C255.256 36.5833 255.258 36.513 255.258 36.4453C255.258 36.3724 255.258 36.3021 255.258 36.2344L254.922 34.3594C254.922 33.8646 254.808 33.4167 254.578 33.0156C254.354 32.6146 254.05 32.2969 253.664 32.0625C253.284 31.8229 252.854 31.7031 252.375 31.7031C251.907 31.7031 251.479 31.8203 251.094 32.0547C250.709 32.2839 250.401 32.5964 250.172 32.9922C249.943 33.3828 249.828 33.8229 249.828 34.3125V34.3281C249.828 34.8281 249.938 35.2734 250.157 35.6641C250.375 36.0495 250.675 36.3542 251.055 36.5781C251.435 36.7969 251.868 36.9062 252.352 36.9062C252.841 36.9062 253.279 36.7969 253.664 36.5781C254.05 36.3594 254.354 36.0599 254.578 35.6797C254.808 35.2943 254.922 34.8568 254.922 34.3672V34.3594H255.383V36.3906H255.11C254.974 36.6979 254.766 36.9844 254.485 37.25C254.209 37.5156 253.87 37.7292 253.469 37.8906C253.073 38.0521 252.62 38.1328 252.11 38.1328C251.407 38.1328 250.776 37.9688 250.219 37.6406C249.662 37.3125 249.222 36.8646 248.899 36.2969C248.576 35.724 248.414 35.0781 248.414 34.3594V34.3438C248.414 33.5938 248.584 32.9271 248.922 32.3438C249.266 31.7552 249.735 31.2943 250.328 30.9609C250.927 30.6276 251.604 30.4609 252.36 30.4609ZM262.387 30.4609C262.903 30.4609 263.411 30.5599 263.911 30.7578C264.416 30.9557 264.872 31.276 265.278 31.7188C265.689 32.1615 266.017 32.7474 266.262 33.4766C266.507 34.2005 266.629 35.0938 266.629 36.1562V36.1719C266.629 37.4531 266.458 38.5495 266.114 39.4609C265.77 40.3672 265.275 41.0625 264.629 41.5469C263.984 42.026 263.205 42.2656 262.293 42.2656C261.663 42.2656 261.093 42.151 260.583 41.9219C260.077 41.6875 259.655 41.362 259.317 40.9453C258.978 40.5286 258.744 40.0443 258.614 39.4922L258.59 39.3906H260.004L260.036 39.4766C260.15 39.7891 260.312 40.0599 260.52 40.2891C260.734 40.5182 260.989 40.6953 261.286 40.8203C261.588 40.9453 261.929 41.0078 262.309 41.0078C262.991 41.0078 263.546 40.8099 263.973 40.4141C264.4 40.013 264.718 39.4818 264.926 38.8203C265.135 38.1589 265.252 37.4375 265.278 36.6562C265.283 36.5833 265.286 36.513 265.286 36.4453C265.286 36.3724 265.286 36.3021 265.286 36.2344L264.95 34.3594C264.95 33.8646 264.835 33.4167 264.606 33.0156C264.382 32.6146 264.077 32.2969 263.692 32.0625C263.312 31.8229 262.882 31.7031 262.403 31.7031C261.934 31.7031 261.507 31.8203 261.122 32.0547C260.736 32.2839 260.429 32.5964 260.2 32.9922C259.971 33.3828 259.856 33.8229 259.856 34.3125V34.3281C259.856 34.8281 259.965 35.2734 260.184 35.6641C260.403 36.0495 260.702 36.3542 261.083 36.5781C261.463 36.7969 261.895 36.9062 262.379 36.9062C262.869 36.9062 263.306 36.7969 263.692 36.5781C264.077 36.3594 264.382 36.0599 264.606 35.6797C264.835 35.2943 264.95 34.8568 264.95 34.3672V34.3594H265.411V36.3906H265.137C265.002 36.6979 264.793 36.9844 264.512 37.25C264.236 37.5156 263.898 37.7292 263.497 37.8906C263.101 38.0521 262.648 38.1328 262.137 38.1328C261.434 38.1328 260.804 37.9688 260.247 37.6406C259.689 37.3125 259.249 36.8646 258.926 36.2969C258.603 35.724 258.442 35.0781 258.442 34.3594V34.3438C258.442 33.5938 258.611 32.9271 258.95 32.3438C259.293 31.7552 259.762 31.2943 260.356 30.9609C260.955 30.6276 261.632 30.4609 262.387 30.4609ZM229.258 66V65.0312L233.07 60.9062C233.549 60.3854 233.924 59.9557 234.195 59.6172C234.466 59.2734 234.656 58.9635 234.766 58.6875C234.875 58.4115 234.93 58.1094 234.93 57.7812V57.7656C234.93 57.3698 234.844 57.0156 234.672 56.7031C234.5 56.3906 234.255 56.1432 233.938 55.9609C233.62 55.7786 233.24 55.6875 232.797 55.6875C232.349 55.6875 231.956 55.7812 231.617 55.9688C231.279 56.151 231.016 56.4089 230.828 56.7422C230.641 57.0703 230.547 57.4557 230.547 57.8984L230.539 57.9141L229.195 57.9062L229.18 57.8984C229.185 57.2318 229.346 56.6406 229.664 56.125C229.982 55.6042 230.419 55.1979 230.977 54.9062C231.534 54.6094 232.172 54.4609 232.891 54.4609C233.547 54.4609 234.138 54.599 234.664 54.875C235.19 55.1458 235.604 55.5182 235.906 55.9922C236.214 56.4661 236.367 57.0078 236.367 57.6172V57.6328C236.367 58.0599 236.292 58.4714 236.141 58.8672C235.995 59.263 235.734 59.7031 235.359 60.1875C234.984 60.6667 234.456 61.2578 233.773 61.9609L230.859 64.9688L231.211 64.3203V64.9688L230.867 64.7344H236.555V66H229.258ZM242.457 66.2656C241.759 66.2656 241.137 66.1276 240.59 65.8516C240.043 65.5755 239.603 65.2005 239.27 64.7266C238.942 64.2474 238.749 63.7083 238.692 63.1094L238.684 63.0234H240.035L240.043 63.0859C240.09 63.4453 240.22 63.7734 240.434 64.0703C240.653 64.362 240.936 64.5938 241.285 64.7656C241.639 64.9375 242.035 65.0234 242.473 65.0234C242.973 65.0234 243.413 64.9141 243.793 64.6953C244.173 64.4714 244.47 64.1641 244.684 63.7734C244.897 63.3828 245.004 62.9349 245.004 62.4297V62.4141C245.004 61.9141 244.895 61.4714 244.676 61.0859C244.462 60.6953 244.168 60.3906 243.793 60.1719C243.418 59.9531 242.986 59.8438 242.496 59.8438C242.121 59.8438 241.775 59.901 241.457 60.0156C241.145 60.1302 240.866 60.3021 240.621 60.5312C240.522 60.625 240.429 60.7266 240.34 60.8359C240.257 60.9453 240.179 61.0677 240.106 61.2031H238.887L239.481 54.7266H245.754V55.9844H240.59L240.207 59.7969H240.332C240.499 59.5417 240.705 59.3281 240.949 59.1562C241.194 58.9844 241.468 58.8542 241.77 58.7656C242.077 58.6719 242.4 58.625 242.738 58.625C243.447 58.625 244.074 58.7891 244.621 59.1172C245.168 59.4401 245.598 59.8854 245.91 60.4531C246.223 61.0156 246.379 61.6615 246.379 62.3906V62.4062C246.379 63.1615 246.21 63.8307 245.871 64.4141C245.538 64.9922 245.077 65.4453 244.488 65.7734C243.9 66.1016 243.223 66.2656 242.457 66.2656ZM249.055 66.0781C248.779 66.0781 248.539 65.9792 248.336 65.7812C248.138 65.5781 248.039 65.3385 248.039 65.0625C248.039 64.7812 248.138 64.5417 248.336 64.3438C248.539 64.1458 248.779 64.0469 249.055 64.0469C249.336 64.0469 249.576 64.1458 249.774 64.3438C249.972 64.5417 250.071 64.7812 250.071 65.0625C250.071 65.3385 249.972 65.5781 249.774 65.7812C249.576 65.9792 249.336 66.0781 249.055 66.0781ZM255.59 54.4609C256.106 54.4609 256.614 54.5599 257.114 54.7578C257.619 54.9557 258.075 55.276 258.481 55.7188C258.892 56.1615 259.221 56.7474 259.465 57.4766C259.71 58.2005 259.833 59.0938 259.833 60.1562V60.1719C259.833 61.4531 259.661 62.5495 259.317 63.4609C258.973 64.3672 258.478 65.0625 257.833 65.5469C257.187 66.026 256.408 66.2656 255.497 66.2656C254.866 66.2656 254.296 66.151 253.786 65.9219C253.28 65.6875 252.859 65.362 252.52 64.9453C252.181 64.5286 251.947 64.0443 251.817 63.4922L251.793 63.3906H253.208L253.239 63.4766C253.353 63.7891 253.515 64.0599 253.723 64.2891C253.937 64.5182 254.192 64.6953 254.489 64.8203C254.791 64.9453 255.132 65.0078 255.512 65.0078C256.194 65.0078 256.749 64.8099 257.176 64.4141C257.603 64.013 257.921 63.4818 258.129 62.8203C258.338 62.1589 258.455 61.4375 258.481 60.6562C258.486 60.5833 258.489 60.513 258.489 60.4453C258.489 60.3724 258.489 60.3021 258.489 60.2344L258.153 58.3594C258.153 57.8646 258.038 57.4167 257.809 57.0156C257.585 56.6146 257.28 56.2969 256.895 56.0625C256.515 55.8229 256.085 55.7031 255.606 55.7031C255.137 55.7031 254.71 55.8203 254.325 56.0547C253.939 56.2839 253.632 56.5964 253.403 56.9922C253.174 57.3828 253.059 57.8229 253.059 58.3125V58.3281C253.059 58.8281 253.168 59.2734 253.387 59.6641C253.606 60.0495 253.905 60.3542 254.286 60.5781C254.666 60.7969 255.098 60.9062 255.583 60.9062C256.072 60.9062 256.51 60.7969 256.895 60.5781C257.28 60.3594 257.585 60.0599 257.809 59.6797C258.038 59.2943 258.153 58.8568 258.153 58.3672V58.3594H258.614V60.3906H258.34C258.205 60.6979 257.997 60.9844 257.715 61.25C257.439 61.5156 257.101 61.7292 256.7 61.8906C256.304 62.0521 255.851 62.1328 255.34 62.1328C254.637 62.1328 254.007 61.9688 253.45 61.6406C252.892 61.3125 252.452 60.8646 252.129 60.2969C251.806 59.724 251.645 59.0781 251.645 58.3594V58.3438C251.645 57.5938 251.814 56.9271 252.153 56.3438C252.497 55.7552 252.965 55.2943 253.559 54.9609C254.158 54.6276 254.835 54.4609 255.59 54.4609ZM269.723 66.1484C268.937 66.1484 268.255 65.9688 267.677 65.6094C267.098 65.25 266.651 64.7422 266.333 64.0859C266.015 63.4297 265.856 62.6562 265.856 61.7656V61.75C265.856 60.875 266.013 60.1146 266.325 59.4688C266.643 58.8229 267.091 58.3229 267.669 57.9688C268.247 57.6094 268.929 57.4297 269.716 57.4297C270.398 57.4297 270.986 57.5495 271.481 57.7891C271.976 58.0286 272.372 58.3516 272.669 58.7578C272.966 59.1589 273.156 59.6094 273.239 60.1094L273.247 60.1562H271.895L271.888 60.1328C271.783 59.7161 271.546 59.362 271.177 59.0703C270.807 58.7786 270.32 58.6328 269.716 58.6328C269.21 58.6328 268.773 58.7604 268.403 59.0156C268.033 59.2708 267.747 59.6328 267.544 60.1016C267.346 60.5651 267.247 61.1146 267.247 61.75V61.7656C267.247 62.4115 267.348 62.974 267.552 63.4531C267.755 63.9271 268.041 64.2943 268.411 64.5547C268.781 64.8151 269.216 64.9453 269.716 64.9453C270.283 64.9453 270.747 64.8229 271.106 64.5781C271.466 64.3333 271.723 63.9766 271.88 63.5078L271.895 63.4609L273.239 63.4531L273.223 63.5391C273.109 64.0443 272.906 64.4948 272.614 64.8906C272.322 65.2812 271.937 65.5885 271.458 65.8125C270.979 66.0365 270.401 66.1484 269.723 66.1484ZM275.071 66V57.5781H276.431V58.8594H276.556C276.743 58.4062 277.03 58.0547 277.415 57.8047C277.806 57.5547 278.277 57.4297 278.829 57.4297C279.209 57.4297 279.55 57.4922 279.853 57.6172C280.155 57.7422 280.415 57.9167 280.634 58.1406C280.853 58.3594 281.027 58.6146 281.157 58.9062H281.282C281.433 58.6094 281.636 58.3516 281.892 58.1328C282.147 57.9089 282.441 57.737 282.774 57.6172C283.113 57.4922 283.475 57.4297 283.86 57.4297C284.433 57.4297 284.918 57.5365 285.313 57.75C285.714 57.9635 286.019 58.276 286.228 58.6875C286.436 59.0938 286.54 59.5911 286.54 60.1797V66H285.181V60.4922C285.181 60.0755 285.116 59.7318 284.985 59.4609C284.86 59.1849 284.668 58.9792 284.407 58.8438C284.147 58.7031 283.819 58.6328 283.423 58.6328C283.032 58.6328 282.691 58.7214 282.399 58.8984C282.108 59.0755 281.881 59.3125 281.72 59.6094C281.558 59.901 281.478 60.2266 281.478 60.5859V66H280.118V60.2812C280.118 59.9479 280.045 59.6589 279.899 59.4141C279.759 59.1641 279.556 58.9714 279.29 58.8359C279.03 58.7005 278.722 58.6328 278.368 58.6328C278.004 58.6328 277.673 58.7292 277.376 58.9219C277.084 59.1146 276.853 59.375 276.681 59.7031C276.514 60.026 276.431 60.3854 276.431 60.7812V66H275.071ZM228.539 90L232.695 78.7266H233.773V80.5469H233.328L230.016 90H228.539ZM230.422 86.7734L230.859 85.5781H235.953L236.391 86.7734H230.422ZM236.766 90L233.453 80.5469V78.7266H234.086L238.242 90H236.766ZM239.887 92.8125V81.5781H241.246V82.9219H241.371C241.543 82.6094 241.759 82.3438 242.02 82.125C242.28 81.901 242.577 81.7292 242.91 81.6094C243.244 81.4896 243.606 81.4297 243.996 81.4297C244.71 81.4297 245.33 81.612 245.856 81.9766C246.387 82.3359 246.798 82.8411 247.09 83.4922C247.382 84.1432 247.528 84.9062 247.528 85.7812V85.7969C247.528 86.6771 247.382 87.4427 247.09 88.0938C246.798 88.7448 246.387 89.25 245.856 89.6094C245.33 89.9688 244.71 90.1484 243.996 90.1484C243.611 90.1484 243.246 90.0885 242.903 89.9688C242.564 89.8438 242.262 89.6719 241.996 89.4531C241.736 89.2344 241.528 88.974 241.371 88.6719H241.246V92.8125H239.887ZM243.684 88.9453C244.199 88.9453 244.639 88.8203 245.004 88.5703C245.369 88.3151 245.647 87.9531 245.84 87.4844C246.038 87.0104 246.137 86.4479 246.137 85.7969V85.7812C246.137 85.125 246.038 84.5625 245.84 84.0938C245.647 83.625 245.369 83.2656 245.004 83.0156C244.639 82.7604 244.199 82.6328 243.684 82.6328C243.173 82.6328 242.733 82.7604 242.363 83.0156C241.994 83.2708 241.71 83.6328 241.512 84.1016C241.314 84.5703 241.215 85.1302 241.215 85.7812V85.7969C241.215 86.4427 241.314 87.0026 241.512 87.4766C241.71 87.9453 241.994 88.3073 242.363 88.5625C242.733 88.8177 243.173 88.9453 243.684 88.9453ZM249.493 92.8125V81.5781H250.852V82.9219H250.977C251.149 82.6094 251.365 82.3438 251.625 82.125C251.886 81.901 252.183 81.7292 252.516 81.6094C252.849 81.4896 253.211 81.4297 253.602 81.4297C254.315 81.4297 254.935 81.612 255.461 81.9766C255.993 82.3359 256.404 82.8411 256.696 83.4922C256.987 84.1432 257.133 84.9062 257.133 85.7812V85.7969C257.133 86.6771 256.987 87.4427 256.696 88.0938C256.404 88.7448 255.993 89.25 255.461 89.6094C254.935 89.9688 254.315 90.1484 253.602 90.1484C253.216 90.1484 252.852 90.0885 252.508 89.9688C252.17 89.8438 251.868 89.6719 251.602 89.4531C251.341 89.2344 251.133 88.974 250.977 88.6719H250.852V92.8125H249.493ZM253.289 88.9453C253.805 88.9453 254.245 88.8203 254.61 88.5703C254.974 88.3151 255.253 87.9531 255.446 87.4844C255.644 87.0104 255.743 86.4479 255.743 85.7969V85.7812C255.743 85.125 255.644 84.5625 255.446 84.0938C255.253 83.625 254.974 83.2656 254.61 83.0156C254.245 82.7604 253.805 82.6328 253.289 82.6328C252.779 82.6328 252.339 82.7604 251.969 83.0156C251.599 83.2708 251.315 83.6328 251.118 84.1016C250.92 84.5703 250.821 85.1302 250.821 85.7812V85.7969C250.821 86.4427 250.92 87.0026 251.118 87.4766C251.315 87.9453 251.599 88.3073 251.969 88.5625C252.339 88.8177 252.779 88.9453 253.289 88.9453ZM259.176 90V78.2344H260.536V90H259.176ZM266.423 90.1484C265.62 90.1484 264.93 89.9714 264.352 89.6172C263.779 89.263 263.337 88.763 263.024 88.1172C262.717 87.4661 262.563 86.7005 262.563 85.8203V85.8125C262.563 84.9427 262.717 84.1797 263.024 83.5234C263.337 82.8672 263.777 82.3542 264.344 81.9844C264.912 81.6146 265.576 81.4297 266.337 81.4297C267.102 81.4297 267.758 81.6068 268.305 81.9609C268.857 82.3151 269.279 82.8099 269.571 83.4453C269.868 84.0755 270.016 84.8099 270.016 85.6484V86.1797H263.266V85.0938H269.321L268.649 86.0859V85.5469C268.649 84.8854 268.55 84.3411 268.352 83.9141C268.154 83.487 267.881 83.1693 267.532 82.9609C267.183 82.7474 266.782 82.6406 266.329 82.6406C265.876 82.6406 265.469 82.7526 265.11 82.9766C264.756 83.1953 264.475 83.5208 264.266 83.9531C264.058 84.3854 263.954 84.9167 263.954 85.5469V86.0859C263.954 86.6849 264.055 87.1979 264.258 87.625C264.462 88.0469 264.751 88.3724 265.126 88.6016C265.501 88.8255 265.943 88.9375 266.454 88.9375C266.834 88.9375 267.165 88.8854 267.446 88.7812C267.727 88.6771 267.959 88.5443 268.141 88.3828C268.324 88.2214 268.451 88.0573 268.524 87.8906L268.555 87.8203H269.915L269.899 87.8828C269.826 88.1693 269.696 88.4479 269.508 88.7188C269.326 88.9844 269.089 89.2266 268.798 89.4453C268.506 89.6589 268.159 89.8307 267.758 89.9609C267.363 90.0859 266.917 90.1484 266.423 90.1484ZM233.242 114.266C232.727 114.266 232.216 114.167 231.711 113.969C231.211 113.771 230.755 113.451 230.344 113.008C229.938 112.565 229.612 111.982 229.367 111.258C229.122 110.529 229 109.633 229 108.57V108.555C229 107.273 229.172 106.18 229.516 105.273C229.859 104.362 230.354 103.667 231 103.188C231.646 102.703 232.424 102.461 233.336 102.461C233.966 102.461 234.534 102.578 235.039 102.812C235.549 103.042 235.974 103.365 236.312 103.781C236.656 104.193 236.891 104.677 237.016 105.234L237.039 105.336H235.625L235.594 105.25C235.479 104.932 235.315 104.661 235.102 104.438C234.893 104.208 234.638 104.031 234.336 103.906C234.039 103.781 233.701 103.719 233.32 103.719C232.638 103.719 232.083 103.919 231.656 104.32C231.229 104.716 230.911 105.245 230.703 105.906C230.5 106.562 230.383 107.284 230.352 108.07C230.346 108.138 230.344 108.208 230.344 108.281C230.344 108.349 230.344 108.419 230.344 108.492L230.68 110.367C230.68 110.862 230.792 111.31 231.016 111.711C231.245 112.112 231.552 112.432 231.938 112.672C232.323 112.906 232.753 113.023 233.227 113.023C233.701 113.023 234.13 112.909 234.516 112.68C234.901 112.445 235.206 112.13 235.43 111.734C235.659 111.339 235.773 110.898 235.773 110.414V110.398C235.773 109.898 235.664 109.456 235.445 109.07C235.232 108.68 234.935 108.375 234.555 108.156C234.174 107.932 233.74 107.82 233.25 107.82C232.766 107.82 232.328 107.93 231.938 108.148C231.552 108.367 231.245 108.669 231.016 109.055C230.792 109.435 230.68 109.87 230.68 110.359V110.367H230.219V108.336H230.492C230.633 108.029 230.841 107.742 231.117 107.477C231.393 107.211 231.732 106.997 232.133 106.836C232.534 106.674 232.987 106.594 233.492 106.594C234.201 106.594 234.833 106.758 235.391 107.086C235.948 107.414 236.385 107.862 236.703 108.43C237.026 108.997 237.188 109.643 237.188 110.367V110.383C237.188 111.133 237.016 111.799 236.672 112.383C236.333 112.966 235.867 113.427 235.273 113.766C234.68 114.099 234.003 114.266 233.242 114.266ZM244.434 114V111.664H238.942V110.383C239.249 109.872 239.561 109.357 239.879 108.836C240.197 108.31 240.517 107.786 240.84 107.266C241.168 106.74 241.496 106.219 241.824 105.703C242.153 105.188 242.478 104.68 242.801 104.18C243.129 103.68 243.452 103.195 243.77 102.727H245.809V110.406H247.41V111.664H245.809V114H244.434ZM240.379 110.414H244.442V104.031H244.348C244.093 104.411 243.832 104.807 243.567 105.219C243.301 105.625 243.03 106.042 242.754 106.469C242.483 106.896 242.212 107.326 241.942 107.758C241.671 108.19 241.403 108.622 241.137 109.055C240.876 109.482 240.624 109.904 240.379 110.32V110.414ZM258.614 114.266C257.833 114.266 257.127 114.128 256.497 113.852C255.872 113.576 255.335 113.18 254.887 112.664C254.444 112.148 254.103 111.529 253.864 110.805C253.624 110.081 253.504 109.268 253.504 108.367V108.352C253.504 107.164 253.715 106.13 254.137 105.25C254.559 104.365 255.153 103.68 255.918 103.195C256.689 102.706 257.588 102.461 258.614 102.461C259.447 102.461 260.189 102.609 260.84 102.906C261.497 103.198 262.036 103.609 262.458 104.141C262.885 104.672 263.171 105.294 263.317 106.008L263.333 106.086H261.911L261.887 106.008C261.658 105.279 261.265 104.721 260.708 104.336C260.15 103.951 259.452 103.758 258.614 103.758C257.869 103.758 257.221 103.948 256.668 104.328C256.122 104.703 255.697 105.234 255.395 105.922C255.093 106.609 254.942 107.419 254.942 108.352V108.367C254.942 109.076 255.025 109.714 255.192 110.281C255.364 110.849 255.609 111.333 255.926 111.734C256.249 112.13 256.637 112.435 257.09 112.648C257.543 112.862 258.054 112.969 258.622 112.969C259.293 112.969 259.882 112.836 260.387 112.57C260.898 112.299 261.293 111.924 261.575 111.445C261.856 110.966 261.997 110.409 261.997 109.773V109.5H258.833V108.266H263.403V109.641C263.403 110.333 263.288 110.964 263.059 111.531C262.835 112.099 262.512 112.589 262.09 113C261.668 113.406 261.163 113.719 260.575 113.938C259.986 114.156 259.333 114.266 258.614 114.266ZM266.438 114V112.758H269.923C270.771 112.758 271.415 112.589 271.852 112.25C272.29 111.911 272.508 111.419 272.508 110.773V110.758C272.508 110.326 272.407 109.964 272.204 109.672C272.001 109.38 271.696 109.161 271.29 109.016C270.889 108.87 270.389 108.797 269.79 108.797H266.438V107.586H269.391C270.245 107.586 270.886 107.435 271.313 107.133C271.745 106.831 271.962 106.383 271.962 105.789V105.773C271.962 105.201 271.766 104.758 271.376 104.445C270.99 104.128 270.449 103.969 269.751 103.969H266.438V102.727H270.048C270.74 102.727 271.334 102.841 271.829 103.07C272.329 103.299 272.712 103.625 272.977 104.047C273.248 104.464 273.383 104.958 273.383 105.531V105.547C273.383 105.938 273.295 106.305 273.118 106.648C272.946 106.992 272.714 107.281 272.423 107.516C272.131 107.75 271.803 107.901 271.438 107.969V108.094C271.954 108.156 272.399 108.31 272.774 108.555C273.149 108.799 273.438 109.117 273.641 109.508C273.85 109.893 273.954 110.333 273.954 110.828V110.844C273.954 111.5 273.8 112.065 273.493 112.539C273.191 113.008 272.756 113.37 272.188 113.625C271.62 113.875 270.936 114 270.133 114H266.438ZM265.735 114V102.727H267.141V114H265.735ZM231.773 138L228.703 126.727H230.172L232.414 135.891H232.508L235.031 126.727H236.453L238.977 135.891H239.07L241.312 126.727H242.781L239.711 138H238.383L235.789 129.102H235.695L233.102 138H231.773ZM244.621 138V129.578H245.981V138H244.621ZM245.309 127.953C245.054 127.953 244.832 127.862 244.645 127.68C244.462 127.492 244.371 127.271 244.371 127.016C244.371 126.755 244.462 126.534 244.645 126.352C244.832 126.169 245.054 126.078 245.309 126.078C245.569 126.078 245.791 126.169 245.973 126.352C246.155 126.534 246.246 126.755 246.246 127.016C246.246 127.271 246.155 127.492 245.973 127.68C245.791 127.862 245.569 127.953 245.309 127.953ZM248.555 138V126.727H255.399V127.992H249.961V131.867H254.953V133.117H249.961V138H248.555ZM257.411 138V129.578H258.77V138H257.411ZM258.098 127.953C257.843 127.953 257.622 127.862 257.434 127.68C257.252 127.492 257.161 127.271 257.161 127.016C257.161 126.755 257.252 126.534 257.434 126.352C257.622 126.169 257.843 126.078 258.098 126.078C258.359 126.078 258.58 126.169 258.762 126.352C258.944 126.534 259.036 126.755 259.036 127.016C259.036 127.271 258.944 127.492 258.762 127.68C258.58 127.862 258.359 127.953 258.098 127.953Z" fill="black"/>
</svg>
