<svg width="48" height="48" viewBox="0 0 48 48" fill="none" xmlns="http://www.w3.org/2000/svg">
<rect width="48" height="48" rx="24" fill="#0A0A0A"/>
<path d="M36.0001 24C36.0001 24.2652 35.8947 24.5196 35.7072 24.7071C35.5196 24.8947 35.2653 25 35.0001 25H15.4138L22.7076 32.2925C22.8005 32.3854 22.8742 32.4957 22.9244 32.6171C22.9747 32.7385 23.0006 32.8686 23.0006 33C23.0006 33.1314 22.9747 33.2615 22.9244 33.3829C22.8742 33.5043 22.8005 33.6146 22.7076 33.7075C22.6146 33.8004 22.5043 33.8741 22.383 33.9244C22.2616 33.9747 22.1314 34.0006 22.0001 34.0006C21.8687 34.0006 21.7386 33.9747 21.6172 33.9244C21.4958 33.8741 21.3855 33.8004 21.2926 33.7075L12.2926 24.7075C12.1996 24.6146 12.1258 24.5043 12.0755 24.3829C12.0252 24.2615 11.9993 24.1314 11.9993 24C11.9993 23.8686 12.0252 23.7385 12.0755 23.6171C12.1258 23.4957 12.1996 23.3854 12.2926 23.2925L21.2926 14.2925C21.4802 14.1049 21.7347 13.9995 22.0001 13.9995C22.2654 13.9995 22.5199 14.1049 22.7076 14.2925C22.8952 14.4801 23.0006 14.7346 23.0006 15C23.0006 15.2654 22.8952 15.5199 22.7076 15.7075L15.4138 23H35.0001C35.2653 23 35.5196 23.1054 35.7072 23.2929C35.8947 23.4804 36.0001 23.7348 36.0001 24Z" fill="white"/>
</svg>
